<?xml version="1.0" encoding="UTF-8" standalone="no"?>
<!-- Created with Inkscape (http://www.inkscape.org/) -->

<svg
   xmlns:dc="http://purl.org/dc/elements/1.1/"
   xmlns:cc="http://creativecommons.org/ns#"
   xmlns:rdf="http://www.w3.org/1999/02/22-rdf-syntax-ns#"
   xmlns:svg="http://www.w3.org/2000/svg"
   xmlns="http://www.w3.org/2000/svg"
   xmlns:sodipodi="http://sodipodi.sourceforge.net/DTD/sodipodi-0.dtd"
   xmlns:inkscape="http://www.inkscape.org/namespaces/inkscape"
   width="700"
   height="700"
   version="1.1"
   viewBox="0 0 700 700"
   id="svg4"
   sodipodi:docname="banco-inter-logo.svg"
   inkscape:version="0.92.0 r15299"
   inkscape:export-filename="C:\Users\suitedoalex\sites\banco-inter-logo-0.png"
   inkscape:export-xdpi="561.73999"
   inkscape:export-ydpi="561.73999">
  <metadata
     id="metadata10">
    <rdf:RDF>
      <cc:Work
         rdf:about="">
        <dc:format>image/svg+xml</dc:format>
        <dc:type
           rdf:resource="http://purl.org/dc/dcmitype/StillImage" />
        <dc:title></dc:title>
      </cc:Work>
    </rdf:RDF>
  </metadata>
  <defs
     id="defs8" />
  <sodipodi:namedview
     pagecolor="#ffffff"
     bordercolor="#666666"
     borderopacity="1"
     objecttolerance="10"
     gridtolerance="10"
     guidetolerance="10"
     inkscape:pageopacity="0"
     inkscape:pageshadow="2"
     inkscape:window-width="1920"
     inkscape:window-height="1017"
     id="namedview6"
     showgrid="false"
     inkscape:zoom="0.57982756"
     inkscape:cx="51.294843"
     inkscape:cy="402.78105"
     inkscape:window-x="-8"
     inkscape:window-y="-8"
     inkscape:window-maximized="1"
     inkscape:current-layer="svg4" />
  <path
     d="m 42.682125,420.47141 h 65.517505 l 0.3485,-1.81416 -64.610308,-13.39656 1.255574,-7.18629 64.610304,13.95464 0.55821,-2.51213 -61.051574,-26.51407 2.651284,-7.32607 61.19171,25.74578 1.2557,-1.81378 -54.213161,-40.25974 5.581612,-8.79136 53.865279,40.25852 1.60456,-2.16278 -42.422024,-53.86527 10.396407,-8.44274 42.072917,51.35389 1.81427,-1.60469 -24.4907,-62.30788 14.86185,-6.27959 23.09548,61.05157 1.81415,-0.55811 V 300.3208 h 23.72241 V 425.63234 H 42.682494 Z M 419.73537,398.28313 h 25.60687 v 27.5614 h -21.28108 c -22.39725,0 -36.14292,-7.74487 -36.14292,-36.14292 v -61.54082 h -15.21096 c -2.65165,0 -4.04712,-3.20974 -2.23297,-5.16342 l 44.02745,-49.95743 c 1.88385,-2.02338 5.30282,-0.69772 5.30282,2.09319 v 25.46674 h 25.39666 v 27.56018 h -25.39666 v 70.12234 z m -91.26328,-99.7059 c -15.28103,0 -26.72305,8.79148 -32.30516,22.60623 h -1.04696 v -20.65292 h -30.35185 v 125.31154 h 31.8872 v -97.12443 h 21.28107 c 9.27974,0 12.69834,1.95367 12.69834,11.8612 v 85.26323 h 31.8872 v -91.47349 c -0.0676,-25.18769 -12.14099,-35.79381 -34.04948,-35.79381 z M 209.6474,425.8433 h 31.88597 V 300.53177 H 209.6474 Z M 626.82393,322.71759 h -1.32196 v -22.18828 h -31.68069 v 125.31154 h 33.77167 v -95.3801 h 29.72492 v -31.88597 h -4.11891 c -15.63014,0 -22.53739,6.9075 -26.37517,24.14158 z m -47.79147,37.2591 v 9.48884 h -95.5903 c 1.74272,18.62955 13.39409,30.98 31.39549,30.98 16.11816,0 27.77038,-8.58225 30.14163,-19.18764 h 33.98065 c -7.11562,26.44401 -31.3955,46.67898 -64.61031,46.67898 -38.72438,0 -65.02702,-27.56018 -65.02702,-63.7031 0,-36.14293 25.3979,-65.65641 65.86539,-65.65641 38.23514,0 63.84569,26.30509 63.84569,61.40068 z m -94.61672,-13.60553 h 61.68219 c -4.81615,-12.55943 -15.00075,-21.56013 -30.77103,-21.56013 -13.81451,0.0697 -25.95475,7.32607 -30.91116,21.56013 z"
     id="path2"
     inkscape:connector-curvature="0"
     style="fill:#ea7100;stroke-width:4.25068426"
     inkscape:export-filename="C:\Users\suitedoalex\sites\banco-inter-logo-3.png"
     inkscape:export-xdpi="109.33305"
     inkscape:export-ydpi="109.33305" />
</svg>
