<?xml version="1.0" encoding="UTF-8"?>
<!-- Created with Inkscape (http://www.inkscape.org/) -->
<svg width="500" height="171" version="1.1" viewBox="0 0 500 171" xmlns="http://www.w3.org/2000/svg">
 <g transform="matrix(.9009 0 0 .9009 2.5e-7 -.35586)">
  <path class="st0" d="m260.5 21.3h0.7c3.2-4 7.4-6.4 12.6-6.4 8.3 0 13 3.9 13 13 0 4.8-0.2 18.1 0 22.3h-12v-20.4c0-6-1.6-9.2-6.4-9.2-5.5 0-7.1 4.4-7.1 11v18.6h-12v-34.3h11.5zm68.1 1c-2.7-2.7-6-4.4-11.1-4.4-7 0-10.6 5.9-10.6 15.3 0 8.9 4.5 14 13 14 3.3 0 6.9-1.5 8.7-3.2l1.6 2.2c-3 2.6-8.9 5-13.8 5-16.3 0-21.7-9.4-21.7-18 0-10.4 8.6-18.2 22-18.2 6 0 10.2 1.3 14.1 3.2zm25.3-7.4c12.9 0 20.4 6.8 20.4 17.4 0 11.6-8.4 18.8-20.4 18.8-10 0-20.4-4.7-20.4-17.3s9.9-18.9 20.4-18.9zm0.2 2.6c-5.6 0-8.8 5.6-8.8 16.5 0 8.1 2 14.6 8.7 14.6 5.7 0 8.5-6.2 8.5-17.4 0-8.3-2.4-13.7-8.4-13.7zm-147.5 1.3c4.8-2.8 11.4-3.9 16.6-3.9 8.9 0 15.2 3.2 15.2 11.5v23.8h-10.4c0-0.7 0.1-2.4 0-4l-0.1-0.9-0.6 0.7c-2.6 3-5.7 5.2-10.7 5.2-8.4 0-11.8-4.7-11.8-9.1 0-6 4.6-8.6 12.3-10.2 9.4-1.9 10.6-2.5 10.6-5.5 0-3.7-3.3-6.7-8.5-6.7-6 0-10 2-11.2 2.7zm21.3 12.4-0.5 0.3c-1.2 0.6-2.5 1-3.7 1.4-1.3 0.4-2.5 0.8-3.7 1.4-2.3 1.2-4 3-4 6.8 0 3.7 2 5.9 5.2 5.9 4 0 6.7-2.7 6.7-7.5zm-51.8-26.8h-4.5l-0.3 18.4h4.2c5 0 10-3.2 10-9.6 0-4.8-2.5-8.8-9.4-8.8zm-17.4-3.5h21.9c10.1 0 16.8 3.3 16.8 10.9s-8.3 10.9-13.5 11.7v0.7c5.2 0.2 14.9 3.4 14.9 11.8 0 10-9.4 14.1-19.4 14.1h-20.7zm16.6 25.3h-4l0.1 20.6h5c5.2 0 9.7-3.7 9.7-10.2 0-6.9-3.8-10.4-10.8-10.4z" fill="#fab327"/>
  <path class="st1" d="m25 115.2c4.4 22.4 23.7 35.5 45.5 35.5 13.6 0 25.7-5.1 25.7-16.3 0-7.5-4.9-12.5-11.8-16.5-3.5-2-7.5-3.8-11.9-5.5-4.3-1.7-8.9-3.4-13.5-5.2-18.5-7.3-36.4-16.4-36.4-38.2 0-24.7 24.3-36.4 48.2-36.4 11 0 18.7 2.3 24.5 4.6 2.9 1.2 5.4 2.3 7.6 3.2s4.1 1.5 6 1.5c4.1 0 6.1-1.9 6.6-7.2h2.8v34.9h-2.9c-5-19.3-21.5-30.7-42.6-30.7-11.7 0-21.3 5-21.3 16 0 6.6 4.8 10.9 11.6 14.3s15.8 6.1 24.9 9.5c18.1 6.7 35.7 16 35.7 38.8 0 28-20.9 39.4-49.5 39.4-8.1 0-17.1-1.8-24.6-3.6-3.8-0.9-7.1-1.8-9.8-2.5-2.6-0.7-4.7-1.1-5.7-1.1-4.1 0-7.6 2.7-9 5.8h-2.9v-40.3zm270 40.2v-2.8c-9.3 0-12.9-2.1-12.9-11.8v-28.2c14.5 0 20.4 2.1 21.2 17.1h3v-39.9h-3c-0.8 15-6.7 17.1-21.2 17.1v-35.7h15.6c13.9 0 21.2 5.8 22.5 19.1h2.9v-24.6h-82.9v2.8c9.3 0 12.9 2.1 12.9 11.8v60.5c0 9.7-3.6 11.8-12.9 11.8v2.8zm194.1 0v-2.8c-8.2 0-10.5-2.4-10.5-5.7 0-2.4 0.7-4.3 1.7-7.1l4.8-13h25.3l6.3 15c0.7 1.8 1.5 4 1.5 6 0 3-2.4 4.7-5.5 4.7h-6v2.8h48.3v-2.8c-4.4-0.4-5.5-1-7.9-6.6l-33.9-80.4h-9.4l-30.7 75c-3.9 9.4-6.2 11.5-11.7 12v2.8h27.7zm19.3-33.6h-21.4l10.7-26.5zm-119.9 34.1h3c0.8-2.3 3.4-4.3 6.3-4.3 2.8 0 17.6 5.3 29.6 5.3 21.2 0 37-8.6 37-29.6 0-34.4-53.4-27.8-53.4-46.2 0-7.7 6.7-11.3 15.3-11.3 15.6 0 27.6 8.4 31.1 22.7h2.9v-26.8h-2.9c-0.3 4-1.6 5.3-4.4 5.3-5.1 0-11.8-6.8-28.2-6.8-17.7 0-36.1 8.7-36.1 27.3 0 33 54.4 27.2 54.4 48.2 0 7.8-8.4 11.6-18.5 11.6-16.1 0-30.2-9.7-33.2-26.2h-3v30.8zm-253.5-45.4c0 30.6 22.3 46.4 52 46.4 29.8 0 52-15.7 52-46.4 0-30.6-22.3-46.4-52-46.4s-52 15.8-52 46.4zm29.8 0c0-29.5 9.1-40.8 22.3-40.8 13.1 0 22.3 11.3 22.3 40.8s-9.1 40.8-22.3 40.8-22.3-11.3-22.3-40.8zm216.3 44.9v-2.8c-9.1 0-12.7-2.1-12.7-11.8v-60.5c0-9.7 3.6-11.8 12.7-11.8v-2.8h-54.6v2.8c9.3 0 12.9 2.1 12.9 11.8v60.5c0 9.7-3.6 11.8-12.9 11.8v2.8zm-381.1-154.4h144.4v8.9h-144.4zm0 15.2h144.4v2.9h-144.4zm0 164.6h144.4v8.9h-144.4zm0-9.3h144.4v2.9h-144.4z" fill="#17b497"/>
 </g>
</svg>
